<svg version="1.1" xmlns="http://www.w3.org/2000/svg" viewBox="0 0 402 313" width="402" height="313">
  <!-- svg-source:excalidraw -->
  
  <defs>
    <style class="style-fonts">
      @font-face {
        font-family: "Virgil";
        src: url("https://excalidraw.com/Virgil.woff2");
      }
      @font-face {
        font-family: "Cascadia";
        src: url("https://excalidraw.com/Cascadia.woff2");
      }
    </style>
  </defs>
  <g transform="translate(42 25) rotate(0 159 131.5)" stroke="none"><path d="M-0.19 -6.79 C-0.19 -6.79, -0.19 -6.79, -0.19 -6.79 M-0.19 -6.79 C-0.19 -6.79, -0.19 -6.79, -0.19 -6.79 M0.21 -1.14 C0.21 -1.14, 0.21 -1.14, 0.21 -1.14 M0.21 -1.14 C0.21 -1.14, 0.21 -1.14, 0.21 -1.14 M1.64 2.89 C2.23 2.26, 3.14 1.62, 4.09 0.48 M1.99 2.95 C2.45 2.45, 2.83 1.97, 3.74 0.59 M4.43 6.6 C5.27 5.58, 5.7 4.66, 6.06 4.34 M4.3 6.44 C4.76 5.98, 5.23 5.55, 6.19 4.02 M5.19 11.61 C5.71 10.6, 6.89 8.92, 8.63 6.44 M4.96 11.75 C5.6 10.7, 6.54 9.68, 9.15 6.48 M4.35 19.07 C4.92 17.33, 7.72 13.29, 11.84 9.05 M3.49 20.07 C5.11 16.79, 7.84 14.82, 12.14 9.6 M4.27 26.39 C7.81 20.12, 12.23 14.76, 15.09 13.23 M4.94 25.19 C7.15 21.11, 10.32 19.46, 14.9 12.99 M5.51 26.61 C10.32 26.73, 10.26 24.1, 15.64 16.57 M6.7 28.77 C9 24.92, 12.88 20.32, 17.67 15.32 M3.89 34.64 C12.55 31.15, 14.54 23.09, 17.54 20.18 M6.41 35.32 C10.51 29.79, 16.6 23.8, 18.83 19.05 M5.27 40.29 C12.08 34.9, 17.72 28.23, 21.75 20.21 M7.42 40.32 C11.41 34.65, 17.24 27.27, 21.64 22.85 M8.45 43.62 C11.02 40.16, 18.47 35.64, 26.2 23.99 M7.41 44.79 C13.04 40.36, 16.55 34.36, 25.98 25.18 M10.87 47.65 C15.78 42.94, 20.29 39.4, 26.82 26.11 M11.01 49 C17.2 40.01, 23.49 33.53, 28.91 27.71 M-16.25 85.1 C-16.26 84.79, -15.68 84.28, -15.3 83.38 M-16.5 85.14 C-16.15 84.71, -15.65 84.21, -15.12 83.62 M12.49 52.19 C16 44.47, 22.8 38.59, 29.78 30.22 M12.2 52.87 C19.82 44.25, 25.51 36.32, 31.36 29.9 M-14.7 88.86 C-13.9 88.46, -13.44 87.6, -11.95 86.34 M-14.64 89.05 C-13.86 88.05, -12.58 86.79, -12.25 86.05 M15.36 56.18 C19.5 48.64, 26.49 43.84, 32.74 30.73 M13.28 56.38 C20.99 47.87, 29.64 37.91, 34.32 32.15 M-13.88 93.91 C-12.45 91.44, -9.58 89.34, -9.08 88.39 M-13.75 93.74 C-11.32 91.77, -9.84 89.72, -8.21 88.25 M14.47 60.39 C22.98 53.04, 32.01 43.41, 38.91 37.08 M15.13 60.68 C19.21 54.84, 24.44 49.28, 37.04 34.61 M-11.02 97.46 C-9.23 94.75, -7.23 94.77, -4.09 90.76 M-11.32 97.12 C-8.73 94.89, -6.31 91.37, -5.22 89.79 M15.56 64.42 C26.21 54.23, 35.47 45.22, 39.64 36.59 M16.2 65.94 C24.66 56.76, 32.96 48.34, 39.71 37.53 M-8.11 100.93 C-6.44 98.55, -3.27 94.47, -0.4 91.35 M-8.05 100.52 C-6.15 97.44, -4.25 95.9, 0.16 91.53 M20.57 70.29 C25.45 59.32, 37.29 50.78, 42.38 42.45 M17.92 68.96 C25.58 59.93, 33.59 50.87, 43.46 41.19 M-7.6 104.55 C-5.6 101.52, -3.58 100.26, 4.8 92.6 M-7.73 105.32 C-4.49 101, 0.02 97.18, 3.38 91.8 M22.83 74.14 C28.55 63.55, 38.29 53.41, 47.38 40.98 M21.95 72.79 C27.37 65.52, 32.1 60.12, 47.02 43.2 M-5.34 108.19 C-2.95 103.26, 1.82 100.28, 6.63 92.78 M-4.52 107.85 C-0.89 102.37, 3.63 97.09, 7.87 93.92 M22.5 75.45 C33.67 64.66, 43.88 50.26, 49.04 46.63 M23.58 76.08 C31.88 65.74, 40.27 55.95, 50.07 45.49 M-1.19 113.58 C1.37 107.68, 4.36 105.34, 11.27 98.54 M-2.99 110.82 C2.55 105.81, 7.64 99.17, 11.34 96.36 M25.88 77.89 C37.17 67.53, 46.95 57.41, 51.86 49.46 M25.07 79.78 C32.3 71.9, 36.76 66, 53.21 47.78 M-1.82 113.99 C2.44 110.35, 6.31 106.59, 16.54 95.91 M-0.12 115.6 C4.15 109.84, 6.78 106.36, 16.17 96.06 M26.68 83.19 C34.4 75.09, 45.7 65.68, 56.44 49.41 M26.87 83.15 C40.12 70.51, 51.39 57.04, 55.98 49.86 M1.57 117.34 C7.15 115.18, 10.6 106.94, 19.46 97.69 M1.61 120.2 C7.76 112.86, 11.8 106.08, 21.26 97.35 M30.09 87.74 C41.13 74.27, 49.67 62.52, 61.58 50.56 M29.75 86.26 C39.03 76.84, 47.95 65.17, 60.87 51.86 M3.88 123.2 C10.13 117.32, 14.33 110.17, 26.52 97.17 M4.55 122.49 C11.82 113.83, 20.96 104.08, 25.73 99.12 M32.1 91.28 C39.97 80.4, 45.35 75.81, 64.79 55.84 M32.08 90.76 C40.9 80.52, 48.43 73.09, 63.95 54.92 M6.81 126.52 C12.79 115.22, 23.51 108.91, 29 100.71 M6.73 125.86 C12.38 118.41, 19.3 110.49, 28.32 99.59 M33.48 94.71 C41.36 84.3, 51.5 73.36, 66.41 55.58 M33.83 93.59 C43.05 83.72, 52.57 72.75, 68.92 55.78 M10.9 129.62 C15.57 122.51, 21.26 113.79, 31.6 103.07 M9.76 129.33 C17.76 120.44, 25.78 109.78, 31.98 101.49 M34.48 97.54 C49.23 82.69, 60.94 70.65, 73.59 55.47 M35.27 98.52 C46.43 86.11, 55.36 74.81, 71.09 56.74 M11.42 129.69 C20.44 119.62, 30.14 110.85, 38.51 101.61 M12.84 130.91 C17.4 124.79, 24.4 117.76, 37.98 100.4 M37.44 102.87 C51.25 84.99, 68.58 69.15, 75.57 56.82 M39.54 101.11 C50.01 88.02, 62.62 72.84, 74.67 57.91 M13.14 132.8 C38.46 104.83, 65.24 79.38, 79.49 61.11 M15.46 133.74 C35.78 109.24, 57.28 85.93, 79.95 59.46 M19.63 138.8 C36.66 116.56, 50.22 98.47, 82.07 59.95 M17.55 138.08 C41.27 110.93, 63.72 83.99, 83.17 60.56 M21.95 139.26 C42.58 113.59, 64.22 90.32, 85.83 64.33 M19.07 141.33 C46.99 108.75, 73.08 79.45, 87.89 62.01 M24.44 141.94 C42.04 120.42, 62.51 96.7, 90.95 64.58 M23.14 142.86 C36.11 125.73, 51.42 110.89, 91.06 65.58 M27.15 144.51 C49.39 123.05, 66.14 98.47, 93.84 67.64 M27.29 144.55 C53.01 117.01, 76.45 87.25, 95.61 67.19 M10.14 170.59 C10.51 170.04, 10.74 169.3, 11.37 168.71 M10.11 170.4 C10.35 169.95, 10.75 169.78, 11.33 168.88 M29.54 147.13 C52.31 122.59, 70.73 101.41, 101.17 69.3 M30.11 145.57 C47.08 131.21, 59.9 114.05, 99.09 68.18 M12.24 173.93 C13.6 172.38, 13.62 172.39, 16.15 170.43 M12.48 173.99 C13.68 172.46, 14.86 171.09, 15.56 169.93 M34.74 149.82 C53.02 128.04, 69.53 108.91, 103.01 67.44 M33.11 148.88 C54.34 125.57, 74.41 102.91, 102.64 68.26 M14.67 177.2 C16.9 174.76, 19.46 172.72, 20.42 170.82 M15.25 176.59 C17.11 174.54, 18.14 173.56, 20.97 169.98 M38.11 149.77 C50.55 135.62, 65.42 120.25, 106.96 72.2 M36.47 151.64 C64.32 121.55, 90.81 90.91, 107.82 70.88 M17.15 180.96 C19.16 178, 20.93 174.94, 27.5 171.18 M17.66 179.96 C19.93 176.96, 22.35 173.72, 26.65 169.35 M39.16 154.03 C58.28 133.3, 74.72 114.27, 110.08 74.07 M41.26 153.08 C59.14 133.52, 76.47 113.98, 110.44 72.04 M21.42 182.83 C24.33 179.67, 24.92 177.03, 29.17 171.21 M21.09 181.52 C24.13 177.36, 27.53 173.82, 30.61 172.49 M43.52 157.82 C69.39 124.67, 98.48 93.63, 112.91 74.19 M43.56 156.76 C65.48 130.91, 86.44 105.56, 114.61 74.57 M22.67 186.67 C28.45 177.51, 32.18 174.38, 37.24 170.9 M23.57 185.61 C27.81 180.89, 31.53 177.38, 36.66 169.45 M47.6 159.18 C67.92 134.55, 90.3 107.81, 120.74 74.8 M47 157.26 C70.58 130.95, 94.07 103.47, 118.01 76.6 M-30.01 253.21 C-29.91 252.94, -29.68 252.43, -29.06 251.9 M-30.29 253.35 C-29.76 252.85, -29.45 252.53, -28.8 251.84 M25.69 188.25 C33.16 181.61, 37.79 173.38, 40.35 171.13 M25.89 187.44 C31.88 182.77, 35.82 177.05, 42.61 169.43 M51.2 159.62 C77.28 128.12, 104.5 97.94, 123.77 78.01 M52.36 159.57 C66.02 142.26, 80.35 125.97, 122.62 77.17 M178.19 11.53 C185.26 4.99, 192.98 -3.08, 196.52 -6.95 M179.51 12.71 C182.47 7.1, 188.11 2.4, 195.21 -6.83 M-27.15 256.88 C-25.64 255.35, -24.41 253.43, -22.51 251.34 M-27.66 256.41 C-25.69 254.77, -23.9 252.07, -22.48 250.83 M31.04 191.15 C35.54 181.79, 43.81 176.08, 46.34 169.3 M31.44 190.32 C37.18 181.36, 43.26 174.29, 47.72 169.02 M54.89 162.21 C79.69 132.65, 106.32 100.01, 126.51 77.22 M55.29 161.01 C80.03 130.96, 105.2 103.77, 127.57 78.3 M173.41 23.14 C185.44 11.02, 193.1 3.15, 206.36 -12.52 M175.35 23.57 C186.02 12.03, 196.29 -1.06, 206.31 -12.78 M-24.74 258.8 C-21.9 256.47, -20.28 252.62, -15.19 247.82 M-23.73 258 C-21.93 255.49, -19.03 252.49, -15.65 248.79 M35.17 193.37 C39.27 183.52, 46.89 175.7, 52.62 170.2 M34.39 191.81 C39.57 186.02, 45.35 179.63, 53.47 171.17 M59.4 162.3 C80.19 137.97, 99.51 115.08, 129.33 81.47 M59.82 162.1 C76.81 143.93, 92.2 125.33, 130.45 78.84 M170.93 33.07 C182.43 21.54, 194.19 4.87, 211.61 -15.57 M171.26 33.94 C183.71 19.5, 195.42 6.85, 212.96 -15.12 M-20.66 259.07 C-17.86 256.36, -13.4 251.5, -9.93 248.81 M-20.69 259.87 C-17.54 257.99, -15.62 254.61, -11.52 250.42 M36.3 193.94 C46.96 185.58, 54.17 174.05, 61.15 168.6 M38.52 193.49 C45.65 183.59, 54.38 174.94, 60.66 167.95 M61.45 164.7 C81.03 142.84, 98 125.35, 136.08 80.06 M63.49 164.96 C83.13 141.19, 103.21 116.76, 137.19 80.14 M171.91 41.12 C186.08 23.75, 202.43 4.49, 219.31 -13.8 M170.48 41.67 C188.16 19.26, 206.02 -1.29, 217.54 -12.74 M-16.03 260.04 C-13.04 256.23, -7.22 253.26, -4.84 247.55 M-15.02 260.65 C-11.43 256.62, -6.86 251.86, -4.83 248.1 M41.31 195.42 C45.72 190.14, 52.82 182.05, 64.7 165.59 M39.27 197.49 C50.46 185.78, 60.42 173.86, 65.88 166.74 M69.02 166.19 C95.55 132.84, 124.19 101.55, 141.35 80.05 M68.11 164.66 C85.34 144.23, 103.17 124.08, 141.43 80.32 M170.27 47.1 C179.67 34.6, 193.13 20.35, 223.77 -12.94 M168.01 49.64 C189.66 23.28, 212.09 -0.13, 222.66 -13.56 M-12.24 261.61 C-9.83 259.84, -5.42 256.18, 2.92 249.32 M-12.46 263.01 C-8.02 259.28, -6.88 256.34, 0.62 248.51 M43.02 197.84 C73.4 166.65, 96.66 137.21, 144.12 82.42 M43.06 198.39 C73.72 161.9, 105.67 126.03, 144.79 82.11 M167.94 51.89 C185.14 39.32, 196.29 24.36, 228.31 -13.11 M170.33 53.63 C190.73 31.23, 209.67 7.2, 228.42 -13.12 M-8.89 263.45 C-0.99 255.98, 6.77 248.61, 9.29 243.02 M-7.02 264.34 C-0.47 256.67, 7.17 247.51, 9.95 243.23 M47.16 200.39 C85.43 158.22, 124.44 112.79, 149.04 83.08 M45.98 200.28 C70.81 172.73, 95.27 145.29, 150.4 82.46 M168.39 61.65 C187.91 41.53, 204.87 20.51, 233.12 -15.9 M167.4 62.17 C186.02 41.56, 203.95 19.92, 234.93 -14.64 M-1.32 264.65 C3.64 259.24, 9.34 252.17, 16.73 241.52 M-3.56 265.03 C2.34 258.36, 9.29 250.04, 17.01 241.8 M48.22 204 C91.11 158.68, 130.06 114.63, 155.51 85.21 M50.29 204.65 C78.15 169.45, 107.89 137.12, 153.37 84.57 M166.94 67.45 C192.62 38.32, 220.73 8.37, 241.05 -15.22 M167.65 67.46 C185.59 47.1, 202.81 28.14, 239.6 -15.42 M1.98 267.22 C10.19 255.5, 17.5 249.72, 22.52 242.05 M2.42 265.8 C6.66 258.72, 12.51 252.34, 21.93 243.24 M52.31 206.61 C89.18 167.38, 121.83 127.33, 159.77 81.48 M52.32 206.31 C76.7 179.03, 101.54 151.8, 160.42 82.7 M165.38 74.7 C185.48 53.68, 205.3 29.9, 245.13 -12.22 M165.76 76.57 C195.92 43.28, 224.91 8.99, 244.95 -14.59 M5.47 267.7 C12.26 259.1, 19.04 249.16, 30.76 238.09 M6.25 266.29 C13.94 257.85, 20.94 248.83, 30.63 240.1 M58.27 208.41 C92.65 165.55, 129.72 120.29, 164.88 81.54 M57.18 208.65 C82.32 177.76, 109.16 147.47, 166.18 81.3 M166.04 81.7 C188.03 58.5, 206.61 33.94, 247.69 -10.32 M167.01 81.69 C197.63 46.13, 228 12.2, 247.99 -10.47 M10.17 268.85 C18.22 256.93, 28.16 246.08, 31.61 241.93 M10.06 268.46 C15.18 261.16, 21.23 255.81, 32.46 240.76 M59.77 210.27 C116.66 144.73, 173.69 81.14, 253.43 -10.07 M60.77 209.84 C109.81 155.33, 156.4 101.09, 252.58 -11.13 M13.42 270.33 C21.91 260.68, 27.68 252.98, 37.88 240.94 M13.4 268.4 C24.17 257.44, 32.94 247.2, 40.18 239.21 M64.72 210 C135.69 129.28, 209.35 45.71, 256.4 -10.55 M64.32 211.91 C103.51 166.75, 141.74 121.67, 255.87 -8.89 M21.7 268.99 C24.43 262.54, 33.01 257.77, 48.42 238.31 M20.36 268.92 C25.95 261.73, 33.32 252.1, 46.69 238.05 M67.09 214.35 C144.12 129.36, 215.61 44.09, 261.7 -8 M68.37 213.83 C127.97 144.29, 188.7 74.16, 260.29 -8.72 M25.45 271.55 C32.05 263.19, 36.63 253.46, 55.15 235.67 M23.68 269.2 C34.93 257.14, 48.64 242.02, 55.37 234.72 M71.74 213.53 C122.65 154.04, 171.96 95.99, 265.27 -5.15 M72.72 214.81 C122.23 158.59, 170.48 103.38, 264.29 -5.59 M27.18 270.09 C35.1 262, 46.58 252.96, 62.2 233.05 M26.95 271.97 C37.79 260.22, 47.58 250.22, 60.59 233.25 M75.06 217.07 C129.84 154.62, 184.57 90.91, 267.46 -4.84 M76.73 215.61 C134.45 149.75, 192.68 82.65, 266.85 -3.39 M35.45 272.27 C42.37 262.63, 49.6 253.72, 66.39 231.07 M32.67 271.76 C42.51 260.72, 52.94 250.67, 66.28 232.46 M81.45 218.7 C153.6 130.72, 229.78 43.69, 270.02 -1.06 M79.45 217.77 C148.09 138.17, 216.05 60.13, 270.45 -1.48 M37.74 273.67 C45.42 262.65, 55.14 253.47, 76.64 227.7 M39.03 271.19 C52.04 258.29, 63.38 243.67, 77.21 226.7 M83.46 219.55 C126.86 167.21, 173.13 116.15, 275.82 0.93 M85.11 218.4 C143.51 153.56, 201.98 86.47, 274.81 0.08 M44.26 272.76 C55.16 258.43, 69.37 244.27, 84.19 226.64 M41.79 273.94 C57.37 256.66, 72.56 237.44, 83.32 226.24 M87.37 220.66 C151.7 145.31, 217.04 69.98, 278.85 3.23 M88.36 220.66 C138.48 165.32, 186.09 110.63, 277.35 2.78 M46.01 273.08 C59.63 262.81, 70.25 249.45, 92.16 219.32 M46.29 274.97 C64.96 254.37, 80.01 235.9, 93.24 221.27 M95.57 219.2 C162.32 142.57, 226.16 68.1, 280.47 4.86 M94 219.47 C151.27 154.48, 206.63 89.56, 280.53 5.13 M49.5 277.02 C98.38 223.27, 145.77 168.42, 282.83 7.31 M51.25 276.55 C113.11 204.12, 176.1 131.49, 283.31 7.94 M54.77 276.72 C146.21 173.09, 234.48 68.48, 286.76 10.54 M56.15 275.9 C141.62 179.26, 227.2 80.84, 286.16 11.39 M60.99 277.3 C140.56 185, 220.52 92.33, 290.07 11.43 M60.23 277.99 C117.46 211.59, 175.77 144.95, 290.89 12.63 M63.41 277.69 C128.63 205.7, 193.32 131.85, 295.31 10.93 M63.91 278.03 C151.46 178.03, 238.08 77.59, 296.62 12.2 M67.94 280.02 C133.03 204.51, 199.62 127.97, 306.84 8.35 M67.55 280.83 C135.39 202.03, 203.13 124.31, 305.95 6.98 M73.3 280.86 C149.31 191.23, 226.26 105.67, 316.2 -0.55 M74.27 280.42 C132.8 210.59, 193.29 142.15, 316.71 -0.4 M79.35 279.76 C156.58 193.12, 232.41 107.05, 322.46 -0.76 M79.34 279.81 C163.47 184.2, 247.26 87.17, 323.35 -0.47 M83.62 278.87 C151.43 203.53, 218.18 125.92, 296.51 37.4 M84.34 279.41 C151.12 203.81, 217.94 126.46, 295.19 37.57 M299.17 33.92 C306.4 24, 312.76 15.79, 330.43 -1.74 M298.22 33.73 C304.54 26.15, 311.89 17.53, 329.88 -2.27 M88.93 281.35 C171.58 186.51, 253.01 91.55, 303.85 34.23 M89.25 280.61 C159.85 201.54, 228.62 122.29, 303.4 34.41 M310.26 26.56 C321.65 13.5, 331.77 1.15, 339.42 -9.51 M308.08 27.57 C318.48 17.71, 328.5 6.91, 340.37 -8.83 M98.11 275.43 C163.68 198.15, 231.4 122.01, 308.21 33.77 M99.51 275.37 C143.62 224.69, 187.52 174.09, 308.8 34.3 M323.06 20.14 C328.66 12.28, 332.84 4.79, 342.51 -1.64 M321.38 20.54 C325.35 15.19, 328.49 9.81, 341.67 -3.45 M104.87 275.3 C187.58 180.07, 267.69 85.63, 316.93 32.82 M105.31 273.91 C173.13 195.54, 241.23 117, 315.33 31.7 M108.97 274.87 C174.36 203.06, 240.89 126.97, 323.04 29.77 M108.57 276.87 C175.72 201.45, 240.79 127.5, 323.1 29.95 M114.41 275.11 C201.36 176.48, 285.9 80.86, 328.67 27.31 M114.45 276.3 C164.81 218.43, 213.91 160.62, 329.93 28.71 M123.72 271.72 C200.45 183.19, 278.07 95.92, 338.12 26.43 M122.87 271.44 C172.98 216.01, 221.42 160.25, 337.12 25.95 M130.39 268.12 C168.23 226.84, 203.27 184.03, 308.01 65.89 M131.07 267.95 C183.71 209.38, 235.47 149.64, 307.98 64.89 M309.59 63.14 C323.14 48.35, 337.21 32.44, 348.46 21.1 M312.44 60.93 C324.32 45.19, 339.91 28.39, 346.63 19.08 M140.61 266.38 C205.5 189.23, 272.37 115.34, 311.62 65.72 M139.39 265.63 C186.93 209.54, 234.32 155.54, 311.33 67.04 M326.04 51.77 C331.08 44.27, 336.81 40.67, 352.18 21.54 M324.98 52.73 C330.85 46.63, 336.35 38.89, 351.59 22.65 M147.34 264 C210.25 186.6, 278.38 109.83, 313.39 71.32 M146.56 262.87 C207.08 193, 267.65 123.2, 312.75 71.55 M154.07 262.73 C192.6 218.56, 230.92 173.24, 312.89 76.17 M153.38 261.7 C205.51 202.8, 257.05 143.14, 314.15 77.57 M163.1 259.7 C194.66 223.12, 223.11 188.07, 314.48 84.77 M161.06 257.73 C210.49 199.09, 260.24 142.89, 314.34 83.24 M175.42 249.14 C226.26 189.13, 280.39 128.9, 313.79 88.52 M174.05 250.05 C222.14 191.78, 272.97 133.62, 314.3 89.33 M181.37 248.85 C213.22 210.02, 247.79 173.19, 313.18 93.62 M181.31 248.62 C228.55 192.26, 277.81 137.28, 314.52 94.66 M186.94 245.87 C220.15 209.27, 251.88 172.88, 313.72 102.16 M187.4 247.71 C231.79 195.75, 278.03 143.89, 313.2 102.34 M194.28 243.69 C227.49 205.63, 260.95 167.89, 308.39 110.03 M193 246.1 C225.1 209.51, 257.48 174.25, 309.37 111.19 M204.11 240.51 C228.07 210.88, 255.7 183.64, 311.03 120.24 M203.91 239.9 C245.31 193.23, 284.56 146.9, 308.93 119.27 M213.62 236.39 C246.26 198.43, 277.85 159.62, 307.92 129.39 M213 233.89 C236.3 210.24, 257.83 183.2, 307.81 127.76 M226.84 227.94 C254.29 195.71, 280.01 166.84, 300.94 139.46 M226.63 226.05 C247.34 202.76, 268.98 177.93, 301.3 138.7 M234.27 220.51 C254.3 202.86, 271.59 179.69, 282.3 164.6 M236.45 221.55 C250.22 207.17, 264.72 191.02, 284.95 165.72 M250.7 210.1 C252.64 209.09, 254.96 207.01, 256.23 203.13 M250.98 210.36 C252.55 207.95, 254.58 205.96, 257.21 203.47 M-31.87 253.11 C-31.87 253.11, -31.87 253.11, -31.87 253.11 M-31.87 253.11 C-31.87 253.11, -31.87 253.11, -31.87 253.11 M-17.19 260.71 C-22.68 256.64, -24.96 251.68, -30.21 250.19 M-17.77 260.41 C-21.06 256.67, -25.08 253.68, -29.12 249.96 M-7.79 262.79 C-12.32 261.07, -14.65 257.82, -22.9 249.42 M-8.48 263.19 C-12.9 259.15, -17.4 255.19, -23.48 249.07 M-5.52 263.76 C-8.36 256.23, -15.97 249.98, -16.73 246.81 M-4.08 261.91 C-7.19 258.66, -10.04 256.97, -19.53 249.2 M4.32 262.32 C-2.04 257.86, -6.08 253.19, -14.78 247.28 M4.53 263.48 C0.41 260.44, -5.72 255.38, -14.46 246.33 M12.4 265.87 C8.01 260.39, 2.63 257.81, -13.3 242.52 M12.25 265.26 C6.46 260.32, 0.24 255.15, -12.18 243.86 M20.14 264.63 C10.8 258.67, 2.4 251.95, -6.27 244.52 M20.55 266.9 C10.37 256.64, -0.68 248.09, -5.41 243.81 M32.27 269.69 C18.16 258.42, 6.38 248.9, -0.68 244.35 M30.13 270.35 C20.17 262.19, 9.8 253.01, -0.86 243.59 M37.2 272.66 C26.86 261.02, 15.91 248.84, 2.98 240.87 M37.43 271.32 C27.32 262.06, 14.36 251.52, 4.48 242.52 M45.66 275.47 C37.29 264.52, 28.1 257.8, 8.26 242.74 M47.38 272.98 C34.21 262.59, 21.6 252.01, 8.92 241.71 M51.35 270.7 C38.26 263.81, 29.76 253.78, 15.17 239.96 M50.16 272.17 C37.51 260.46, 25.96 250.9, 14.7 241.56 M59.53 276.68 C47.52 266.96, 38.78 256.17, 18.53 238.55 M59.98 274.35 C44.4 262.92, 29.05 248, 20.39 240.16 M67.92 276.01 C52.6 261.57, 35.12 246.75, 26.14 240.61 M68.01 276.02 C55.99 266.84, 45.44 257.87, 25.21 239.41 M74.24 277.28 C61.5 263.31, 48.98 251.22, 30.56 237.84 M74.15 276.31 C60.37 262.91, 46.15 251.32, 30.96 238.25 M81.27 278.59 C70.2 267.24, 60.85 259.83, 35.85 239.51 M82.11 278.38 C66.54 265.17, 51.83 251.49, 34.87 238.63 M87.24 276.44 C68.55 259.75, 50.23 244.61, 38.84 235.3 M88 278.15 C70.87 262.68, 54.47 248.38, 38.96 236.12 M90.43 278.26 C81.78 265.23, 70.43 256.98, 42.88 233.92 M93.04 276.77 C81.61 267.13, 72.11 258.71, 43.99 234.5 M94.85 274.65 C80.11 262.59, 67.69 247.1, 47.8 232.04 M95.33 274.65 C82.29 260.9, 68.52 249.71, 49.46 234.5 M101.55 271.34 C89.82 261.95, 77.35 251.47, 54.46 234.9 M101.34 273.39 C83.25 257.22, 64.89 242.11, 56.34 234.31 M107.82 274.73 C92.12 258.02, 76.08 246.44, 58.46 232.47 M107.19 273.09 C90.83 259.98, 75.88 245.07, 60.9 231.63 M113.44 271.96 C99.9 260.79, 87.86 248.08, 63.92 230.15 M113.03 272.43 C96.21 258.03, 78.31 243.51, 64.6 230.19 M117.97 272.23 C107.34 263.65, 98.06 255.09, 67.2 230.22 M118.49 271.71 C98.18 254.3, 77.24 237.96, 67.94 229.13 M120.97 269.63 C104.43 256.44, 86.72 242.57, 73.21 229.18 M122.98 271.67 C104.98 256.04, 88.26 240.88, 72.9 228.22 M18.31 180.14 C18.31 180.14, 18.31 180.14, 18.31 180.14 M18.31 180.14 C18.31 180.14, 18.31 180.14, 18.31 180.14 M125.78 267.33 C117.89 260.83, 105.52 251.04, 78.05 227.1 M125.65 268.53 C111.75 255.67, 97.59 243.35, 77.92 226.32 M51.29 202.6 C41.84 197.29, 30.95 188.4, 9.02 166.94 M51.38 204.12 C39.2 193.89, 26.99 183.17, 10.01 167.52 M131.42 267.84 C115.94 253.39, 98.87 239.4, 80.03 222.81 M132.23 268.42 C116.23 254.7, 102.78 242.84, 81.05 224.36 M63.43 210.24 C47.66 193.2, 31.93 178.11, 19.09 170.44 M64.2 210.95 C54.57 201.35, 43.75 192.93, 16.6 167.89 M133.66 266.22 C124.05 256.97, 116.83 248.66, 84.75 222.77 M134.93 265.22 C125.98 257.69, 114.78 247.27, 86.49 223.97 M80.36 215.96 C58.78 198.2, 40.57 182.6, 22.09 167.04 M78.62 217.13 C61.13 199.4, 40.94 183.63, 22.8 168.31 M138.65 265.4 C123.34 252.37, 111.8 238.39, 91.66 221.38 M139.16 264.86 C121.24 248.81, 102.02 231.72, 91.1 220.89 M87.26 221.36 C66.42 201.34, 44.27 180.65, 31.33 166.96 M88.97 219.86 C65.23 199.5, 42.14 180.76, 30.24 167.96 M143.92 261.49 C126.21 246.8, 110.83 233.34, 93.85 220.2 M144.52 262.66 C129.35 249.05, 113.58 236.51, 94.19 220.21 M95.48 219.17 C70.43 197.87, 44.17 177.15, 33.67 165.11 M94.58 219.66 C70.45 198.55, 49.01 179.87, 32.91 166.89 M146.36 259.85 C111.46 229.42, 78.86 199.88, 39.92 165.47 M146.79 261.35 C113.89 232.9, 79.9 204.01, 39.43 167.92 M151.93 258.89 C129.25 238.77, 107.87 220.6, 45.07 167.72 M153.15 260.01 C125.67 237.3, 97.9 213.06, 46.71 166.63 M157.39 255.96 C117.78 221.77, 77.23 186.99, 49.85 167.8 M155.08 257.98 C122.68 228.38, 90.02 198.99, 50.62 166.53 M23.97 142.73 C19.93 139.05, 17.51 137.57, 14.94 133.52 M23.76 141.77 C21.66 140.96, 20.02 138.74, 14.21 133.47 M157.9 254.34 C128.38 227.97, 97.86 200.2, 58.93 168.01 M158.78 254.84 C132.39 230.61, 104.81 206.98, 57.74 166.95 M44.35 156.81 C29.13 144.52, 16.44 130.29, 4.42 123.43 M45.24 155.92 C35.97 148.28, 27.88 141.85, 4.94 121.92 M162.03 252.91 C144.71 234.92, 120.31 214.59, 63.38 164.13 M163.38 253.77 C135.26 227.23, 103.72 201.47, 62.48 165.52 M53.82 159.49 C43.2 146.82, 27.55 137.13, -5.34 107.12 M55.89 158.85 C39.83 144.3, 22.54 131.44, -6.39 105.61 M169.45 254.5 C142.3 228.3, 109.97 200.84, 67.17 165.09 M168.66 253.75 C135.46 222.95, 98.65 192.8, 65.1 163.63 M67.95 162.97 C43.29 142.43, 22.48 124.73, -15.08 93.9 M65.22 163.01 C38.15 139.55, 9.1 114.88, -13.69 93.92 M174.34 251.13 C131.5 215.66, 93.56 181.72, -11.97 87.22 M172.2 251.11 C105.94 192.01, 38.44 134.64, -13.3 88.09 M175.73 246.52 C138.44 216.91, 101.62 183.03, -10.98 85.55 M175.19 248.18 C117.32 196.83, 61.25 146.73, -11.15 84.98 M179.53 248.88 C114.03 188.07, 46.79 128.51, 3.87 90.89 M180.95 246.85 C125.03 198.72, 69.64 149.99, 2.54 92.39 M186.48 247.27 C117.21 185.92, 45.83 124.21, 10.87 93.89 M184.75 245.96 C129.38 196.74, 72.8 147.12, 10.05 92.88 M188.09 243.86 C143.91 205.9, 101.22 167.07, 15.09 93.39 M188.67 242.76 C127.05 189.31, 65.62 135.63, 15.69 93.21 M194.28 243.16 C137.61 195.28, 81.75 145, 25.62 94.58 M193.92 241.93 C159.27 212.61, 124.07 183.41, 24.51 95.58 M198.64 242.92 C161.98 208.51, 129.3 177.51, 32.99 98.66 M198.39 241.41 C154.13 203.45, 111.12 165.75, 33.71 97.15 M200.34 239.61 C141.02 185.26, 76.8 131.15, 32.78 93.47 M201.63 239.52 C134.73 179.27, 67.57 120.04, 32.17 92.76 M204.06 236.38 C147.93 187.33, 94.04 137.11, 27.89 85.24 M204.89 235.8 C167.05 202.96, 130.07 170.47, 28.84 84.08 M210.59 234.96 C141.64 174.2, 69.45 113.03, 16.25 67.12 M208.84 235.01 C147.29 182.93, 86.68 129.01, 16.28 67.01 M213.58 234.21 C149.53 176.27, 84.66 119.72, 14.25 59.52 M213.21 233.52 C136.29 165.27, 59.98 97.74, 13.26 59.92 M215.79 230.51 C157.98 181.81, 103.33 133.46, 10.41 51.28 M216.93 231.24 C174.94 195.78, 131.69 158.4, 9.63 51.61 M221.07 227.55 C162.06 176.87, 101.04 127.77, 9.29 46.58 M220.41 228.42 C141.89 162.13, 64.62 94, 10.6 46.31 M224.82 227.52 C149.17 161.52, 75.28 97.16, 9.55 37.86 M223.44 226.42 C157.13 169.63, 92.11 112.93, 8.85 39.54 M229.63 226.22 C153.97 160.4, 79.97 94.05, 8.58 33.52 M228.5 225.46 C149.77 157.05, 70.38 87.49, 7.66 32.07 M230.15 221.55 C158.69 157.5, 85.24 95.31, 4.52 26.27 M230.49 222.38 C173.94 173.03, 114.82 122.34, 4.48 25.41 M235.01 219.64 C160.22 153.75, 86.54 89.72, 4.37 19.58 M234.28 219.98 C151.28 149.74, 69.05 77.37, 4.03 19.5 M236.58 216.11 C185.16 171.41, 128.17 123.83, 5.72 14.12 M237.79 216.89 C163.09 153.2, 89.12 88.48, 4.4 14.14 M240.63 214.35 C152.41 136.34, 63.75 60.77, 2.74 6.43 M241.28 215.49 C153.11 137.71, 63.81 59.83, 3.04 7.48 M245.15 211.82 C205.66 177.96, 161.95 141.8, 51.9 44.41 M245.16 212.65 C175.62 152.44, 105.82 92.33, 51.08 44.2 M22.35 16.93 C16.4 13.06, 8.46 10.01, 3.64 2.66 M21.68 17.54 C17.56 13.96, 14.03 11.98, 2.31 2.06 M0.04 -0.05 C0.04 -0.05, 0.04 -0.05, 0.04 -0.05 M0.04 -0.05 C0.04 -0.05, 0.04 -0.05, 0.04 -0.05 M249.98 211.57 C198.27 169.12, 149.99 126.34, 67.04 53.93 M248.42 211.43 C192.65 162.9, 136.9 115.49, 67.3 52.56 M0.4 -5.04 C0.4 -5.04, 0.4 -5.04, 0.4 -5.04 M0.4 -5.04 C0.4 -5.04, 0.4 -5.04, 0.4 -5.04 M251.24 207.7 C210.24 171.58, 166.29 135.78, 77.15 56.2 M251.23 209.28 C203.76 165.81, 155.44 123.05, 77.31 55.56 M255.41 207.46 C213.87 173.4, 174.81 136, 89.75 61.73 M254.95 205.34 C188.3 149.81, 122.95 92.09, 88.64 61.93 M258.65 203.27 C203.6 154.85, 149.38 108.73, 100.85 67.13 M257.27 202.78 C201.84 155.43, 146.36 108.34, 100.84 66.42 M261.07 199.97 C226.51 171.27, 189.81 139.93, 113.3 72.03 M259.19 199.14 C224.66 166.62, 187.91 135.68, 112.86 71.24 M263.59 196.49 C211.38 149.23, 158.93 105.3, 126.96 78.33 M263.38 196.03 C211.4 152.59, 159.68 108.1, 125.12 77.81 M265.84 191.08 C219.32 154.7, 171.38 112.3, 133.64 79.11 M264.73 193.65 C230 160.13, 193.2 130.01, 133.48 78.35 M269.55 190.38 C238.76 161.98, 209.13 137.92, 138.41 75.83 M268.72 189.65 C217.1 145.98, 167.39 100.38, 136.43 77.42 M271.67 185.08 C235.1 157.25, 202.43 129.54, 150.37 82.52 M270.48 186.58 C225.77 147.8, 182.81 111.08, 148.11 81.91 M272.21 181.79 C234.25 154.04, 200.95 122.61, 154.74 79.67 M272.75 183.74 C243.23 157.59, 212.54 133.51, 154.4 80.84 M274.39 177.99 C231.11 140.84, 186.47 102.87, 161.63 82.34 M274.14 179.86 C248.32 157.52, 222.99 136.79, 159.91 81.27 M276.73 178.63 C248.9 150.33, 220.7 127.18, 166.09 82.02 M277.38 177.72 C255.46 158.36, 232.44 137.49, 166.09 80.09 M280.97 174.32 C237.51 136.39, 194.01 103.31, 164.93 75.91 M279.34 174.09 C239.05 137.67, 197.2 102.22, 166.2 75.19 M279.64 170.03 C250.02 140.28, 214.17 115.15, 165.77 71.53 M280.71 170.41 C244.29 137.39, 205.2 102.55, 166.52 69.88 M282.75 165.17 C238.95 128.73, 194.29 87.31, 165.69 65.69 M282.88 166.66 C247.35 135.07, 212.57 105.19, 167.05 65.78 M285.58 162.99 C255.56 136.76, 226.47 112.81, 168.54 61.83 M285.78 162.71 C252.32 134.66, 219.15 103.88, 167.01 60.04 M287.68 159.44 C249.59 128.48, 212.89 95.45, 166.96 57.35 M287.02 158.95 C243.56 122.24, 199.62 83.89, 168.95 56.53 M290.59 157.75 C254.93 123.46, 217.99 89.85, 169.77 49.87 M289.79 156.9 C246.84 119.16, 204.77 82.37, 168.28 51.95 M292.86 153.3 C253.8 119.65, 214.75 87.35, 167.38 46.48 M291.96 153.8 C257.91 123.64, 223.57 94.24, 168.79 47.02 M293.82 151.01 C253.91 117.41, 215.23 82.59, 170.91 41.22 M293.93 149.97 C267.8 125.91, 240.74 101.63, 169.93 41.77 M296.26 145.44 C267.58 120.34, 241.34 96.83, 171.99 36.53 M297.57 146.73 C248.63 104.59, 201.15 64.08, 170.69 36.91 M298.03 145.46 C268.19 118.04, 234.67 86.9, 173.28 34.6 M299.78 143.02 C252.27 103, 206.61 62.68, 172.28 33.02 M299.95 140.43 C251.06 95.47, 200.29 50.62, 173.19 28.16 M300.66 139.37 C274.28 117.3, 247.34 93.15, 172.94 29.24 M304.37 135.58 C261.88 99.99, 219.09 64.71, 175.12 23.26 M302.12 135.19 C266.98 104.82, 230.74 73.93, 175.34 23.92 M304.64 131.41 C267.15 100.58, 228.36 69.54, 176.5 21.28 M303.49 132.07 C264.21 96.23, 222.67 60.94, 175.73 20.49 M306.13 129.77 C270.16 93.82, 233.84 65.05, 175.76 15.72 M306.67 127.68 C269.64 96.75, 232.11 65.73, 177.05 16.14 M306.18 124 C279.11 102.34, 253.34 74.93, 178.57 12.31 M306.24 123.86 C275.57 96.41, 241.82 67.25, 177.25 11.82 M309.45 118.93 C260.34 80.53, 213.54 36.76, 180.15 7.66 M308.85 120.42 C274.03 89.23, 239.98 59.2, 179.78 8.73 M311.79 117.05 C281.59 93.32, 257.58 68.2, 181.69 4.84 M311.31 117.21 C261.76 72.69, 213.21 30.68, 182.09 5.79 M309.59 109.23 C271.06 78.07, 234.35 47.21, 186.9 1.97 M309.99 110.75 C264.99 73.16, 221.85 34.29, 184.35 2.11 M312.28 107.34 C285.68 85.24, 261.64 61.8, 187.75 -3.59 M311.48 106.68 C278.11 75.86, 243.11 46.32, 187.28 -0.94 M312.74 102.61 C277.54 72.85, 238.77 42.59, 187.71 -3.23 M313.15 102 C281.31 73.84, 249.69 45.86, 189.52 -3.87 M314.14 96.12 C290.7 76.42, 265.71 55.82, 195.28 -5.63 M314.04 97.49 C279.02 68.2, 242.72 38.19, 193.3 -5.71 M312.9 91.67 C285.77 67.26, 254.84 42.31, 198.93 -7.98 M314.03 92.35 C279.54 61.67, 243.5 29.44, 197.49 -9.35 M316.2 87.18 C277.97 54.89, 241.34 22.88, 202.42 -11.99 M315.41 87.6 C289.77 65, 264.7 42.21, 201.05 -11.71 M315.21 81.51 C291.64 60.65, 265.81 41.93, 203.76 -11.07 M314.28 80.64 C287.14 60.91, 262.08 37.24, 206.12 -13.01 M313.66 78.95 C277.41 46.29, 239.02 10.47, 207.96 -15.57 M315.21 77.78 C287.34 55.33, 260.82 31.58, 208.89 -14.15 M311.96 69.72 C288.98 49.72, 263.45 26.17, 215.04 -16.08 M313.52 70.43 C273.68 36.84, 237.33 4.43, 213.73 -16.14 M308.08 61.69 C289.24 44.97, 269.73 27.37, 219.05 -14.68 M308.24 62.83 C275.13 32.28, 241.46 4.46, 220.34 -15.46 M314.06 58.48 C281.6 31.78, 248.91 5.8, 227.01 -16.14 M312.78 60 C288.47 38.03, 262.33 17.81, 226.84 -15.39 M316.06 55.91 C291.44 37.24, 264.39 14.93, 229.96 -15.13 M317.12 58 C283.07 30.37, 251.36 1.11, 230.89 -15.37 M317.81 56.41 C313.94 50.72, 308.78 46.64, 297.58 34.85 M319.32 54.3 C312.72 48.61, 303.99 42.53, 296.47 33.99 M295.8 34.51 C280.53 20.6, 264.83 7.64, 237.69 -15.74 M296.91 35.08 C279.58 20.75, 264.85 6.34, 237.53 -16.46 M324.21 53.88 C316.69 46.96, 308.99 40.52, 298.84 30.93 M323.89 52.21 C318.64 48.13, 314.35 45.29, 300.64 32.9 M299.21 30.95 C284.84 19.03, 268.52 2.63, 246.42 -14.95 M299.18 32.66 C284.65 19.06, 270.87 7.34, 245.27 -14.71 M324.9 49.69 C318.48 45.31, 313.25 36.63, 306.15 32.12 M326.7 49.23 C319.25 44.7, 310.54 37.64, 303.42 30.39 M302.47 31.98 C289.35 17.89, 273.18 4.85, 251.03 -12.22 M302.61 30.75 C284.04 12.63, 264.59 -3.56, 252.63 -12.97 M328.78 46.82 C323.97 41.24, 315.83 36.54, 310.48 29.51 M330.05 47.21 C323.09 43.25, 318.35 39.25, 309.31 30.78 M307.8 29.21 C299.15 21.07, 293.94 16.5, 289.49 9.74 M306.68 28.45 C302.31 24.67, 298.06 19.54, 288 10.9 M284.96 6.97 C281.6 6.96, 278.75 2.75, 272.43 -0.11 M283.65 8.44 C279.96 5.02, 276.18 1.44, 273.07 -1.32 M334.42 45.8 C329.09 40.54, 323.1 36.88, 315.71 30.38 M332.73 44.59 C328.57 42.24, 323.98 36.6, 314.58 31.33 M309.08 27.13 C305.65 18.8, 297 16.76, 291.37 8.75 M310.88 26.63 C305.27 21.45, 301.37 17.95, 291.87 9.97 M336.26 42.43 C332.63 41.06, 327.4 36.4, 320.12 28.68 M335.61 41.69 C331.13 37.18, 324.97 34.43, 320.86 28.51 M313.45 23.01 C307.14 20.18, 302.2 11.5, 296.75 8.21 M313.14 23.48 C308.2 18.03, 303.18 15.32, 294.49 7.76 M336.86 38.08 C333.66 34.68, 325.42 30.33, 325.44 25.13 M338.49 38.73 C335.1 37.19, 332.58 33.75, 324.48 26.25 M316.87 22.99 C313.06 16.78, 307.24 11.01, 298.75 5.71 M317.46 21.46 C312.82 16.88, 309.68 13.99, 300.12 7.07 M341.11 37.51 C337.93 34.46, 336.61 30.38, 329.44 26.59 M341.06 36.95 C336.32 32.81, 332.1 29.61, 328.91 27.03 M321.1 20.12 C315.21 17.27, 312.44 13.17, 306.7 7.75 M321.03 19.46 C315.27 15.2, 309.64 8.91, 305.7 6.56 M343.84 34.22 C341.84 30.38, 339.35 30.28, 333.88 24.15 M343.42 33.87 C341.14 30.4, 337.73 28.22, 334.08 25.36 M325.36 14.82 C320.92 13.6, 314.98 8.36, 309.39 5.9 M323.54 15.81 C320.36 13.52, 317.17 9.95, 310.32 4.33 M345.63 31.47 C342.27 27.62, 338.61 24.67, 337.6 21.63 M345.77 30.21 C343.51 27.69, 340.81 26.01, 337.08 22.02 M326.46 13.38 C321.74 9.08, 318.66 8.37, 314.99 1.76 M326.29 13.31 C322.05 9.96, 318.31 6.57, 313.94 3.55 M348.37 27.04 C346.17 24.05, 342.46 23.41, 341.11 20.93 M348.09 27.69 C345.73 25.34, 343.62 23.16, 341.13 20.64 M328.54 9.29 C325.97 5.51, 319.93 1.21, 317.82 -1.53 M329.62 11.16 C325.22 6.14, 319.81 2.62, 316.15 -0.28 M351.49 24.67 C348.31 22.99, 345.88 20.2, 345.07 18.88 M351.01 24.13 C349.44 23.08, 347.34 21.28, 345.05 19.04 M333.1 6.5 C330.5 4.77, 326.48 2.2, 320.34 -1.84 M332.42 8.37 C329.48 5.75, 327.9 3.63, 321.76 -1.19 M334.78 4.95 C332.39 2.19, 329.98 2.4, 324.93 -2.04 M335.33 4.43 C332.49 2.1, 330.15 0.49, 325.31 -3.21 M337.27 1.88 C335.84 -0.14, 333.82 -2.07, 330.89 -3.02 M337.59 1.7 C335.75 0.47, 333.95 -1.67, 331.67 -3.21 M339.83 -1.63 C338.13 -2.62, 336.72 -4.15, 335.31 -4.72 M339.63 -1.6 C338.7 -2.37, 337.82 -3.33, 335.47 -4.94 M341.51 -5.27 C340.56 -5.9, 340.12 -6.24, 338.83 -7.48 M341.31 -5.52 C340.5 -6.13, 339.87 -6.78, 338.93 -7.36" stroke="#228be6" stroke-width="0.5" fill="none"></path><path fill="#000000" d="M 0.72,-1.45 Q 0.72,-1.45 1.92,-0.96 3.11,-0.47 4.84,0.71 6.56,1.91 8.22,3.69 9.87,5.46 13.12,9.38 16.37,13.30 18.58,15.81 20.78,18.31 25.40,22.49 30.02,26.68 34.01,30.21 38.00,33.74 41.95,36.64 45.89,39.55 49.60,42.23 53.30,44.92 55.99,46.62 58.68,48.32 60.96,49.61 63.24,50.90 65.93,52.31 68.61,53.72 70.58,54.59 72.56,55.47 75.36,56.40 78.17,57.33 81.17,58.62 84.17,59.91 87.70,61.30 91.23,62.70 93.59,63.58 95.95,64.46 98.99,65.70 102.03,66.95 104.48,68.06 106.94,69.17 108.82,69.89 110.69,70.62 112.37,71.16 114.04,71.70 115.19,72.19 116.33,72.68 119.10,73.48 121.86,74.28 123.29,74.82 124.71,75.35 126.21,75.53 127.71,75.71 129.41,76.10 131.10,76.49 132.52,76.60 133.94,76.71 137.25,77.47 140.56,78.22 142.83,78.87 145.10,79.51 146.31,79.65 147.52,79.79 149.40,79.77 151.29,79.75 152.64,79.73 153.99,79.72 155.43,79.71 156.87,79.69 159.20,79.83 161.54,79.96 162.82,79.90 164.10,79.84 163.37,78.90 162.63,77.95 162.62,76.22 162.61,74.49 163.03,71.91 163.45,69.34 163.67,66.94 163.89,64.55 164.63,61.89 165.36,59.24 165.66,57.15 165.97,55.06 166.11,53.03 166.26,51.00 166.32,48.98 166.38,46.97 166.71,44.86 167.03,42.74 167.42,40.95 167.80,39.15 168.27,37.27 168.73,35.38 169.16,33.91 169.59,32.43 170.41,30.63 171.23,28.83 171.79,27.48 172.36,26.13 172.50,24.22 172.65,22.31 173.36,20.44 174.06,18.58 174.60,17.27 175.13,15.97 175.27,14.81 175.40,13.66 176.17,11.93 176.94,10.19 177.49,8.97 178.05,7.75 178.61,6.78 179.18,5.81 180.05,4.76 180.92,3.71 182.20,1.54 183.49,-0.63 184.59,-2.04 185.69,-3.46 186.42,-4.40 187.15,-5.33 188.62,-6.25 190.09,-7.17 191.17,-7.77 192.25,-8.37 194.42,-9.58 196.60,-10.79 197.90,-11.47 199.21,-12.16 200.67,-12.75 202.12,-13.33 203.60,-13.86 205.08,-14.39 206.66,-15.23 208.24,-16.07 209.37,-16.47 210.51,-16.87 212.10,-17.08 213.70,-17.30 215.22,-17.37 216.75,-17.44 218.26,-17.45 219.77,-17.47 221.56,-17.42 223.35,-17.36 225.26,-17.29 227.17,-17.21 229.13,-17.14 231.10,-17.06 232.79,-17.06 234.49,-17.06 236.07,-17.08 237.66,-17.10 239.89,-16.70 242.13,-16.30 244.49,-15.80 246.85,-15.31 248.52,-14.87 250.20,-14.43 253.25,-12.98 256.31,-11.52 258.38,-10.63 260.45,-9.74 262.60,-8.42 264.74,-7.11 266.48,-5.99 268.23,-4.88 269.77,-4.22 271.31,-3.55 272.93,-2.66 274.55,-1.76 275.92,-0.79 277.28,0.16 278.91,1.47 280.54,2.78 281.62,3.57 282.71,4.35 283.63,5.37 284.55,6.39 285.82,7.32 287.10,8.25 288.10,8.78 289.11,9.31 290.33,8.68 291.56,8.05 294.47,7.42 297.39,6.79 299.40,6.32 301.42,5.85 304.01,5.13 306.60,4.41 308.21,3.79 309.82,3.17 311.50,1.94 313.19,0.71 314.95,-0.25 316.72,-1.21 317.99,-1.95 319.25,-2.69 320.89,-3.11 322.52,-3.54 323.90,-3.96 325.28,-4.39 326.92,-4.62 328.56,-4.85 330.11,-4.96 331.66,-5.06 332.68,-5.74 333.71,-6.43 335.34,-7.63 336.97,-8.83 337.64,-9.48 338.30,-10.13 338.57,-10.30 338.84,-10.47 339.14,-10.57 339.44,-10.67 339.76,-10.70 340.08,-10.73 340.39,-10.68 340.71,-10.63 341.00,-10.50 341.29,-10.38 341.55,-10.19 341.81,-10.00 342.01,-9.75 342.21,-9.50 342.35,-9.22 342.48,-8.93 342.55,-8.62 342.61,-8.30 342.60,-7.99 342.59,-7.67 342.50,-7.36 342.41,-7.05 342.26,-6.78 342.10,-6.50 341.88,-6.27 341.66,-6.04 341.02,-3.25 340.39,-0.45 338.09,2.92 335.78,6.30 331.84,10.35 327.89,14.39 325.08,17.19 322.27,19.99 318.37,22.69 314.46,25.39 311.98,27.06 309.49,28.73 306.38,30.60 303.28,32.47 301.11,33.82 298.95,35.17 297.80,35.84 296.66,36.52 296.48,36.61 296.30,36.69 296.11,36.73 295.91,36.77 295.71,36.76 295.52,36.75 295.33,36.70 295.14,36.64 294.97,36.55 294.79,36.45 294.65,36.31 294.51,36.17 294.40,36.01 294.30,35.84 294.23,35.65 294.17,35.46 294.15,35.27 294.14,35.07 294.17,34.87 294.20,34.68 294.28,34.50 294.36,34.31 294.47,34.16 294.59,34.00 294.75,33.87 294.90,33.75 297.07,32.99 299.23,32.23 301.50,31.97 303.77,31.70 306.88,31.08 309.98,30.46 313.32,29.64 316.65,28.81 319.48,27.91 322.31,27.01 324.16,26.54 326.00,26.08 328.38,25.12 330.75,24.15 332.12,23.60 333.49,23.05 336.03,22.07 338.58,21.08 340.89,20.37 343.20,19.65 344.94,18.80 346.68,17.95 348.15,17.92 349.62,17.89 350.40,18.66 351.18,19.43 351.10,21.86 351.02,24.29 349.96,26.54 348.89,28.78 347.24,31.15 345.59,33.52 343.70,35.68 341.81,37.84 340.14,39.61 338.47,41.38 336.61,43.28 334.74,45.17 332.18,47.44 329.63,49.71 327.95,50.99 326.27,52.28 324.13,53.94 322.00,55.60 320.51,56.68 319.03,57.76 316.92,59.04 314.82,60.32 313.08,61.43 311.35,62.54 310.50,63.26 309.65,63.98 311.10,65.07 312.56,66.16 313.10,67.46 313.64,68.77 313.99,71.70 314.34,74.63 314.46,76.73 314.58,78.83 314.59,82.34 314.60,85.86 314.58,88.19 314.55,90.53 314.24,94.18 313.92,97.82 313.48,100.55 313.04,103.27 312.25,105.66 311.46,108.06 311.20,109.80 310.95,111.54 310.80,113.68 310.65,115.81 309.97,118.33 309.30,120.84 308.76,122.74 308.22,124.64 307.38,126.91 306.53,129.18 305.96,130.76 305.39,132.35 304.51,134.41 303.64,136.48 301.79,140.00 299.94,143.53 297.40,147.36 294.86,151.19 292.91,153.95 290.97,156.72 289.60,158.99 288.22,161.27 287.41,162.84 286.59,164.42 285.30,166.27 284.01,168.13 282.93,169.99 281.84,171.86 280.47,173.86 279.11,175.86 277.33,177.91 275.56,179.95 274.31,181.87 273.05,183.79 271.93,185.51 270.81,187.23 269.45,189.12 268.08,191.01 266.96,192.46 265.83,193.92 264.48,195.62 263.13,197.32 261.68,199.19 260.24,201.06 258.75,203.00 257.27,204.94 255.75,206.67 254.22,208.39 252.37,210.03 250.52,211.67 248.54,212.97 246.55,214.27 243.12,216.26 239.69,218.24 236.57,220.48 233.45,222.71 231.51,223.98 229.56,225.25 227.29,226.65 225.02,228.05 223.51,229.01 221.99,229.96 219.63,231.45 217.28,232.94 214.76,234.19 212.24,235.43 209.72,236.53 207.21,237.63 204.76,238.93 202.31,240.23 199.52,241.65 196.72,243.08 193.76,244.28 190.80,245.49 187.81,246.57 184.83,247.65 181.83,248.69 178.84,249.72 176.20,250.99 173.57,252.26 169.47,253.70 165.38,255.15 161.42,256.88 157.45,258.61 154.30,259.94 151.15,261.26 149.25,262.11 147.36,262.96 145.09,263.90 142.83,264.84 141.00,265.57 139.18,266.30 136.97,267.15 134.77,268.00 132.63,268.66 130.49,269.33 128.19,270.16 125.90,271.00 123.72,271.66 121.55,272.31 118.86,272.89 116.17,273.46 113.60,273.99 111.04,274.52 107.62,275.03 104.20,275.55 101.34,276.05 98.48,276.55 95.28,277.33 92.09,278.11 89.20,278.46 86.31,278.81 83.63,278.95 80.96,279.10 78.38,279.16 75.81,279.22 72.98,279.25 70.16,279.27 66.83,278.70 63.51,278.12 59.26,277.31 55.01,276.49 52.67,276.15 50.32,275.81 46.69,275.08 43.05,274.35 40.09,273.76 37.12,273.16 35.05,272.92 32.98,272.67 30.61,272.27 28.23,271.87 25.45,271.12 22.67,270.36 19.55,269.77 16.43,269.18 12.76,268.34 9.09,267.50 6.73,267.16 4.37,266.82 1.55,266.08 -1.26,265.34 -2.71,265.14 -4.16,264.95 -5.56,264.92 -6.96,264.89 -8.58,264.59 -10.20,264.29 -11.99,263.85 -13.79,263.41 -15.23,262.97 -16.68,262.54 -18.33,262.06 -19.99,261.59 -22.53,260.40 -25.08,259.20 -26.51,258.47 -27.95,257.74 -28.94,257.15 -29.92,256.57 -31.09,255.94 -32.25,255.32 -32.58,252.49 -32.90,249.65 -30.80,248.84 -28.70,248.04 -27.38,247.83 -26.06,247.62 -23.67,247.17 -21.27,246.72 -19.35,246.26 -17.43,245.80 -12.75,245.07 -8.06,244.33 -3.60,243.22 0.86,242.10 3.42,241.63 5.98,241.16 8.49,240.70 11.00,240.23 13.29,240.04 15.58,239.84 19.35,239.21 23.11,238.57 25.34,238.30 27.57,238.03 30.21,237.63 32.86,237.24 35.95,236.51 39.04,235.78 42.42,235.17 45.81,234.57 48.36,234.03 50.91,233.49 53.45,232.98 55.99,232.46 58.43,231.68 60.88,230.91 63.97,229.99 67.07,229.08 69.78,228.13 72.50,227.17 75.09,226.20 77.68,225.22 80.53,224.22 83.37,223.22 85.11,222.48 86.84,221.74 88.46,221.07 90.07,220.41 91.25,219.81 92.42,219.21 92.66,218.92 92.90,218.63 93.11,218.57 93.33,218.50 93.55,218.49 93.78,218.49 93.99,218.53 94.21,218.57 94.42,218.67 94.62,218.77 94.79,218.91 94.96,219.05 95.10,219.23 95.23,219.41 95.32,219.61 95.41,219.82 95.44,220.04 95.48,220.26 95.46,220.48 95.44,220.70 95.37,220.92 95.30,221.13 95.18,221.32 95.06,221.51 94.90,221.66 94.74,221.82 94.55,221.93 94.35,222.04 92.13,222.05 89.91,222.07 86.55,221.06 83.18,220.06 79.77,218.73 76.37,217.41 74.36,216.54 72.36,215.67 69.82,214.72 67.29,213.78 64.76,212.78 62.22,211.79 58.80,210.19 55.39,208.59 53.01,207.00 50.62,205.41 48.48,203.88 46.35,202.34 43.99,200.53 41.63,198.72 40.03,197.37 38.43,196.02 36.39,194.62 34.34,193.23 32.86,192.42 31.38,191.61 29.03,190.04 26.67,188.48 24.47,186.61 22.26,184.74 20.79,183.77 19.32,182.79 18.01,181.79 16.70,180.78 13.56,177.37 10.43,173.96 9.29,172.49 8.15,171.02 8.17,169.35 8.19,167.67 10.24,166.85 12.30,166.03 14.08,166.59 15.86,167.16 17.75,167.30 19.65,167.44 21.45,167.56 23.25,167.68 24.62,167.67 25.98,167.66 28.66,167.24 31.33,166.82 33.82,166.66 36.30,166.51 39.09,166.47 41.89,166.44 44.22,166.45 46.55,166.46 49.18,166.20 51.82,165.93 53.57,165.75 55.32,165.56 56.65,165.41 57.98,165.26 59.56,164.95 61.13,164.63 63.78,163.92 66.43,163.20 66.80,163.07 67.18,162.95 67.45,162.95 67.71,162.95 67.96,163.01 68.22,163.08 68.45,163.20 68.68,163.33 68.87,163.50 69.07,163.68 69.21,163.90 69.36,164.11 69.45,164.36 69.54,164.60 69.57,164.86 69.60,165.13 69.57,165.39 69.54,165.65 69.44,165.89 69.34,166.13 69.19,166.35 69.04,166.56 68.85,166.74 68.65,166.91 68.41,167.03 68.18,167.15 67.93,167.21 67.67,167.27 66.52,166.76 65.36,166.25 63.31,165.65 61.25,165.05 59.26,164.09 57.27,163.14 55.24,162.10 53.22,161.06 50.72,160.04 48.22,159.03 45.31,157.37 42.40,155.70 39.46,153.84 36.52,151.97 34.11,150.29 31.71,148.62 29.03,147.08 26.35,145.53 24.60,144.60 22.86,143.68 19.99,141.15 17.13,138.63 13.05,134.39 8.97,130.15 5.78,126.01 2.58,121.86 0.38,118.97 -1.81,116.08 -3.05,114.60 -4.29,113.13 -5.67,111.31 -7.06,109.49 -8.04,107.80 -9.02,106.10 -9.96,103.92 -10.91,101.73 -12.12,99.75 -13.33,97.77 -14.19,95.64 -15.06,93.51 -16.25,90.95 -17.44,88.39 -18.08,86.95 -18.72,85.51 -18.68,84.42 -18.65,83.32 -17.59,82.54 -16.54,81.76 -15.07,82.10 -13.60,82.44 -12.55,82.88 -11.51,83.31 -10.13,84.12 -8.74,84.94 -7.65,85.50 -6.55,86.06 -4.89,86.60 -3.23,87.15 -1.41,88.05 0.40,88.96 1.52,89.19 2.65,89.42 4.47,90.22 6.29,91.03 8.55,91.67 10.82,92.31 14.42,93.20 18.02,94.10 21.91,95.38 25.80,96.67 29.37,97.49 32.93,98.32 35.29,98.68 37.64,99.04 38.94,99.07 40.24,99.11 40.52,99.12 40.79,99.13 41.00,99.18 41.21,99.23 41.40,99.33 41.59,99.42 41.76,99.57 41.92,99.71 42.04,99.88 42.17,100.06 42.24,100.26 42.32,100.46 42.35,100.67 42.38,100.88 42.36,101.10 42.33,101.31 42.26,101.51 42.18,101.72 42.06,101.89 41.94,102.07 41.78,102.22 41.62,102.36 41.44,102.46 41.25,102.57 41.04,102.62 40.83,102.67 40.61,102.67 40.40,102.68 37.94,101.31 35.48,99.94 34.02,97.87 32.57,95.80 30.85,92.90 29.14,90.01 27.56,87.03 25.98,84.06 24.20,81.11 22.42,78.16 20.54,75.49 18.67,72.82 16.98,70.20 15.30,67.58 14.27,65.55 13.24,63.52 11.66,59.77 10.07,56.01 9.38,53.79 8.70,51.58 7.27,46.92 5.83,42.27 4.92,37.63 4.01,33.00 3.35,29.33 2.68,25.65 2.39,22.89 2.10,20.14 1.69,17.28 1.29,14.43 1.01,12.92 0.73,11.40 0.67,9.26 0.61,7.12 0.47,5.96 0.33,4.80 -0.23,3.41 -0.80,2.02 -1.16,0.64 -1.53,-0.74 -1.84,-2.31 -2.16,-3.89 -2.30,-5.01 -2.44,-6.13 -2.42,-6.43 -2.39,-6.73 -2.30,-7.01 -2.20,-7.29 -2.04,-7.54 -1.88,-7.79 -1.67,-7.99 -1.45,-8.20 -1.19,-8.34 -0.93,-8.49 -0.65,-8.57 -0.36,-8.65 -0.07,-8.66 0.22,-8.67 0.51,-8.61 0.80,-8.55 1.07,-8.42 1.34,-8.29 1.56,-8.10 1.79,-7.91 1.97,-7.67 2.15,-7.44 2.26,-7.16 2.38,-6.89 2.42,-6.60 2.47,-6.30 2.27,-3.15 2.08,0.00 2.02,0.33 1.97,0.66 1.81,0.96 1.65,1.26 1.41,1.49 1.16,1.72 0.86,1.86 0.55,2.01 0.21,2.04 -0.11,2.08 -0.44,2.00 -0.77,1.93 -1.06,1.76 -1.35,1.58 -1.57,1.32 -1.78,1.07 -1.91,0.75 -2.03,0.44 -2.05,0.10 -2.07,-0.22 -1.98,-0.55 -1.89,-0.87 -1.70,-1.15 -1.51,-1.43 -1.24,-1.64 -0.97,-1.84 -0.65,-1.95 -0.33,-2.05 0.00,-2.05 0.34,-2.05 0.66,-1.94 0.98,-1.84 1.24,-1.63 1.51,-1.43 1.70,-1.15 1.89,-0.87 1.98,-0.54 2.07,-0.22 2.05,0.11 2.03,0.45 1.90,0.76 1.78,1.07 1.56,1.33 1.34,1.59 1.05,1.76 0.76,1.93 0.43,2.01 0.10,2.08 -0.22,2.04 -0.56,2.00 -0.86,1.86 -1.17,1.72 -1.41,1.49 -1.66,1.25 -1.82,0.95 -1.97,0.66 -2.03,0.32 -2.08,-0.00 -2.08,-0.00 -2.08,-0.00 -2.26,-3.07 -2.44,-6.13 -2.42,-6.43 -2.39,-6.73 -2.30,-7.01 -2.20,-7.29 -2.04,-7.54 -1.88,-7.79 -1.67,-7.99 -1.45,-8.20 -1.19,-8.34 -0.93,-8.49 -0.65,-8.57 -0.36,-8.65 -0.07,-8.66 0.22,-8.67 0.51,-8.61 0.80,-8.55 1.07,-8.42 1.34,-8.29 1.56,-8.10 1.79,-7.91 1.97,-7.67 2.15,-7.44 2.26,-7.16 2.38,-6.89 2.42,-6.60 2.47,-6.30 2.38,-5.25 2.30,-4.21 2.28,-2.84 2.26,-1.48 2.40,-0.32 2.54,0.84 3.15,2.75 3.75,4.65 3.68,5.83 3.60,7.02 3.68,9.03 3.77,11.05 3.84,12.56 3.91,14.06 4.32,16.96 4.73,19.86 5.01,22.52 5.29,25.17 5.96,28.83 6.63,32.49 7.51,36.98 8.40,41.48 9.84,46.13 11.27,50.77 11.93,52.86 12.58,54.94 14.15,58.60 15.71,62.26 16.69,64.15 17.66,66.05 19.34,68.59 21.02,71.14 23.00,73.86 24.97,76.59 26.85,79.57 28.73,82.55 30.35,85.40 31.97,88.26 33.71,90.96 35.46,93.67 36.73,95.30 38.00,96.93 39.40,98.03 40.79,99.13 41.00,99.18 41.21,99.23 41.40,99.33 41.59,99.42 41.76,99.57 41.92,99.71 42.04,99.88 42.17,100.06 42.24,100.26 42.32,100.46 42.35,100.67 42.38,100.88 42.36,101.10 42.33,101.31 42.26,101.51 42.18,101.72 42.06,101.89 41.94,102.07 41.78,102.22 41.62,102.36 41.44,102.46 41.25,102.57 41.04,102.62 40.83,102.67 40.61,102.67 40.40,102.68 40.13,102.57 39.87,102.45 38.55,102.20 37.22,101.94 34.75,101.62 32.28,101.30 28.56,100.52 24.83,99.73 21.04,98.59 17.25,97.44 13.59,96.69 9.94,95.93 7.31,95.38 4.68,94.83 3.11,94.19 1.54,93.56 0.09,93.10 -1.35,92.64 -2.88,91.93 -4.42,91.21 -6.59,90.66 -8.76,90.10 -9.90,89.42 -11.05,88.74 -12.24,87.99 -13.43,87.24 -14.59,85.91 -15.75,84.58 -15.36,85.91 -14.97,87.24 -13.73,89.85 -12.50,92.46 -11.71,94.38 -10.92,96.30 -9.60,98.42 -8.28,100.55 -7.33,102.62 -6.39,104.69 -5.62,106.24 -4.85,107.80 -3.46,109.57 -2.08,111.34 -0.87,112.89 0.33,114.44 2.54,117.31 4.74,120.19 7.86,124.21 10.98,128.22 14.99,132.36 19.00,136.50 21.64,138.81 24.27,141.12 26.01,142.09 27.75,143.06 30.55,144.63 33.36,146.20 35.74,147.79 38.12,149.38 41.03,151.15 43.94,152.91 46.68,154.37 49.42,155.84 52.09,156.77 54.76,157.69 56.79,158.52 58.82,159.35 60.95,160.08 63.08,160.81 65.13,161.88 67.18,162.95 67.45,162.95 67.71,162.95 67.96,163.01 68.22,163.08 68.45,163.20 68.68,163.33 68.87,163.50 69.07,163.68 69.21,163.90 69.36,164.11 69.45,164.36 69.54,164.60 69.57,164.86 69.60,165.13 69.57,165.39 69.54,165.65 69.44,165.89 69.34,166.13 69.19,166.35 69.04,166.56 68.85,166.74 68.65,166.91 68.41,167.03 68.18,167.15 67.93,167.21 67.67,167.27 67.28,167.29 66.89,167.31 65.57,167.40 64.25,167.49 63.03,167.89 61.81,168.28 59.98,168.58 58.14,168.89 56.85,168.85 55.57,168.81 53.86,168.89 52.16,168.96 49.39,169.31 46.61,169.66 44.31,169.76 42.02,169.85 39.34,170.03 36.67,170.20 34.40,170.52 32.12,170.85 29.03,171.56 25.94,172.28 24.55,172.24 23.16,172.19 21.19,172.23 19.21,172.26 18.04,172.10 16.87,171.94 15.55,171.60 14.23,171.27 12.55,170.20 10.88,169.13 11.80,170.47 12.73,171.81 15.79,175.02 18.86,178.23 19.97,179.27 21.07,180.31 22.58,181.44 24.08,182.57 26.17,184.31 28.26,186.04 30.61,187.54 32.95,189.03 34.41,190.01 35.87,190.99 38.04,192.46 40.21,193.93 41.74,195.25 43.28,196.57 45.61,198.34 47.93,200.11 50.05,201.60 52.16,203.09 54.37,204.55 56.58,206.02 59.92,207.54 63.26,209.06 65.78,210.00 68.31,210.93 70.93,211.83 73.55,212.73 75.55,213.48 77.54,214.24 80.85,215.39 84.16,216.53 87.11,217.29 90.07,218.04 91.48,218.33 92.90,218.63 93.11,218.57 93.33,218.50 93.55,218.49 93.78,218.49 93.99,218.53 94.21,218.57 94.42,218.67 94.62,218.77 94.79,218.91 94.96,219.05 95.10,219.23 95.23,219.41 95.32,219.61 95.41,219.82 95.44,220.04 95.48,220.26 95.46,220.48 95.44,220.70 95.37,220.92 95.30,221.13 95.18,221.32 95.06,221.51 94.90,221.66 94.74,221.81 94.55,221.93 94.35,222.04 94.10,222.20 93.84,222.37 92.48,222.85 91.13,223.32 89.51,223.84 87.89,224.35 86.07,225.03 84.24,225.71 81.43,226.69 78.61,227.68 75.99,228.67 73.37,229.66 70.59,230.64 67.82,231.61 64.75,232.52 61.68,233.44 59.10,234.25 56.52,235.07 54.00,235.59 51.47,236.11 48.88,236.66 46.29,237.21 42.97,237.82 39.66,238.42 36.47,239.19 33.27,239.96 30.60,240.38 27.93,240.80 25.76,241.10 23.60,241.39 19.73,242.09 15.87,242.78 13.74,243.02 11.61,243.25 9.12,243.80 6.63,244.34 4.19,244.90 1.76,245.46 -2.82,246.76 -7.40,248.06 -11.83,248.95 -16.26,249.84 -18.19,250.51 -20.13,251.17 -23.74,252.11 -27.36,253.04 -29.07,253.36 -30.79,253.67 -29.72,252.88 -28.64,252.09 -27.38,253.27 -26.11,254.44 -24.88,255.20 -23.66,255.95 -21.29,256.90 -18.92,257.85 -17.15,258.35 -15.37,258.85 -14.15,259.35 -12.93,259.86 -11.15,260.29 -9.38,260.72 -8.02,261.11 -6.65,261.49 -5.09,261.72 -3.53,261.95 -2.06,262.37 -0.59,262.80 2.07,263.51 4.75,264.22 7.21,264.58 9.68,264.94 13.30,265.77 16.92,266.60 20.14,267.21 23.36,267.83 26.02,268.55 28.67,269.28 30.98,269.67 33.29,270.06 35.46,270.32 37.64,270.59 40.60,271.18 43.57,271.77 47.13,272.49 50.70,273.21 53.10,273.56 55.51,273.91 59.74,274.72 63.96,275.53 67.05,276.09 70.14,276.64 72.94,276.62 75.74,276.59 78.28,276.53 80.82,276.47 83.41,276.33 86.00,276.19 88.73,275.87 91.47,275.55 94.74,274.75 98.02,273.95 100.91,273.44 103.80,272.93 107.16,272.42 110.51,271.92 113.06,271.39 115.61,270.86 118.19,270.31 120.77,269.75 122.87,269.11 124.97,268.47 127.32,267.60 129.68,266.73 131.72,266.08 133.76,265.43 135.97,264.55 138.19,263.67 140.00,263.03 141.81,262.39 144.04,261.45 146.28,260.52 148.20,259.68 150.13,258.83 153.26,257.51 156.40,256.20 160.45,254.43 164.51,252.66 168.46,251.27 172.42,249.88 175.20,248.55 177.97,247.22 180.94,246.19 183.92,245.15 186.85,244.08 189.79,243.01 192.64,241.85 195.50,240.69 198.27,239.26 201.04,237.84 203.57,236.48 206.10,235.12 208.55,234.03 210.99,232.94 213.37,231.74 215.74,230.54 218.14,228.98 220.53,227.42 222.08,226.62 223.63,225.81 225.87,224.42 228.11,223.03 230.01,221.79 231.91,220.56 235.13,218.25 238.35,215.93 241.72,213.98 245.08,212.03 246.91,210.84 248.74,209.65 250.46,208.12 252.17,206.59 253.62,204.94 255.07,203.28 256.54,201.32 258.00,199.36 259.43,197.45 260.85,195.55 262.20,193.78 263.55,192.01 264.71,190.72 265.87,189.43 267.20,187.57 268.52,185.71 269.65,184.01 270.79,182.31 272.15,180.24 273.50,178.17 275.16,176.24 276.82,174.31 278.11,172.38 279.40,170.46 280.51,168.48 281.63,166.50 282.81,164.73 283.99,162.95 284.94,161.41 285.88,159.86 287.29,157.50 288.69,155.13 290.59,152.38 292.49,149.63 294.92,145.91 297.36,142.19 299.10,138.77 300.84,135.35 301.66,133.24 302.47,131.14 303.16,129.67 303.85,128.21 304.63,126.01 305.41,123.81 305.98,121.96 306.56,120.11 307.15,117.87 307.74,115.62 307.86,113.33 307.97,111.03 308.36,109.10 308.74,107.18 309.44,105.00 310.14,102.82 310.51,100.21 310.88,97.59 311.11,94.08 311.34,90.58 311.25,88.25 311.16,85.93 311.01,82.55 310.86,79.16 310.62,77.21 310.38,75.25 309.73,71.92 309.09,68.59 308.42,67.58 307.76,66.56 307.19,65.49 306.62,64.42 307.00,63.08 307.38,61.75 308.58,60.94 309.79,60.13 311.54,58.99 313.29,57.86 315.32,56.57 317.35,55.27 318.82,54.35 320.30,53.43 322.44,51.74 324.58,50.04 326.18,48.84 327.78,47.64 330.24,45.42 332.70,43.20 334.52,41.30 336.33,39.40 337.92,37.64 339.51,35.88 341.24,33.81 342.96,31.74 344.40,29.54 345.84,27.35 346.62,25.64 347.41,23.93 347.67,22.30 347.94,20.67 346.04,21.59 344.14,22.51 341.95,23.26 339.77,24.01 337.15,25.12 334.53,26.24 333.21,26.56 331.89,26.89 329.29,27.99 326.69,29.09 324.95,29.43 323.21,29.77 320.31,30.75 317.41,31.73 314.03,32.64 310.65,33.55 307.41,34.29 304.18,35.03 302.37,35.27 300.56,35.51 298.61,36.01 296.66,36.52 296.48,36.61 296.30,36.69 296.11,36.73 295.91,36.77 295.71,36.76 295.52,36.75 295.33,36.70 295.14,36.64 294.97,36.55 294.79,36.45 294.65,36.31 294.51,36.17 294.40,36.01 294.30,35.84 294.23,35.65 294.17,35.46 294.15,35.27 294.14,35.07 294.17,34.87 294.20,34.68 294.28,34.50 294.36,34.32 294.47,34.16 294.59,34.00 294.75,33.87 294.90,33.75 296.17,33.26 297.43,32.77 299.59,31.38 301.75,29.98 304.76,28.11 307.77,26.24 310.20,24.51 312.63,22.79 316.24,20.20 319.85,17.62 322.54,14.74 325.23,11.87 328.81,7.98 332.39,4.10 334.27,0.99 336.15,-2.11 336.77,-3.95 337.39,-5.79 337.84,-7.96 338.30,-10.13 338.57,-10.30 338.84,-10.47 339.14,-10.57 339.44,-10.67 339.76,-10.70 340.08,-10.73 340.39,-10.68 340.71,-10.63 341.00,-10.50 341.29,-10.38 341.55,-10.19 341.81,-10.00 342.01,-9.75 342.21,-9.50 342.35,-9.22 342.48,-8.93 342.55,-8.62 342.61,-8.30 342.60,-7.99 342.59,-7.67 342.50,-7.36 342.41,-7.05 342.26,-6.78 342.10,-6.50 341.88,-6.27 341.66,-6.04 340.94,-5.45 340.23,-4.87 339.08,-3.98 337.93,-3.09 336.16,-2.22 334.40,-1.35 333.16,-1.03 331.92,-0.71 330.48,-0.67 329.05,-0.62 327.72,-0.51 326.39,-0.40 324.85,-0.01 323.31,0.37 322.14,0.52 320.96,0.66 319.67,1.26 318.38,1.85 316.84,2.67 315.30,3.49 313.27,5.10 311.23,6.71 309.50,7.38 307.77,8.04 305.21,8.98 302.64,9.92 300.65,10.66 298.66,11.39 296.19,12.25 293.73,13.10 292.67,13.52 291.61,13.94 289.42,13.97 287.23,14.01 285.84,13.02 284.45,12.03 283.47,11.23 282.49,10.42 281.41,8.81 280.33,7.20 279.42,6.33 278.51,5.46 276.79,4.23 275.07,3.00 273.97,2.06 272.88,1.11 271.41,0.22 269.95,-0.66 268.29,-1.51 266.63,-2.35 264.91,-3.43 263.18,-4.51 261.22,-5.65 259.26,-6.80 257.09,-7.62 254.91,-8.45 252.04,-9.69 249.16,-10.92 247.70,-11.41 246.24,-11.89 243.93,-12.22 241.62,-12.54 239.64,-12.72 237.65,-12.89 236.07,-12.91 234.49,-12.92 232.80,-12.92 231.10,-12.92 229.14,-12.84 227.19,-12.76 225.29,-12.68 223.39,-12.59 221.63,-12.51 219.87,-12.43 218.43,-12.39 216.99,-12.35 215.65,-12.28 214.30,-12.21 213.20,-12.11 212.09,-12.00 210.46,-11.58 208.83,-11.15 207.73,-10.61 206.63,-10.07 205.21,-9.57 203.79,-9.07 202.49,-8.58 201.19,-8.09 200.07,-7.59 198.95,-7.09 196.76,-5.52 194.57,-3.95 193.51,-3.43 192.45,-2.91 190.89,-1.79 189.33,-0.66 188.43,0.53 187.53,1.73 186.67,3.44 185.81,5.16 185.26,6.07 184.70,6.98 183.47,8.37 182.25,9.77 181.65,10.94 181.05,12.10 180.47,13.28 179.89,14.46 179.56,16.10 179.23,17.73 178.66,18.94 178.09,20.14 177.55,21.48 177.01,22.81 176.81,23.97 176.61,25.13 176.20,26.43 175.80,27.74 175.12,29.01 174.45,30.28 173.71,31.95 172.96,33.62 172.42,34.89 171.89,36.17 171.42,38.04 170.95,39.92 170.50,41.56 170.05,43.21 169.76,45.13 169.47,47.04 169.43,49.11 169.40,51.17 169.32,53.31 169.24,55.45 169.01,57.78 168.79,60.10 168.27,62.42 167.76,64.74 167.75,67.28 167.75,69.81 167.63,72.08 167.52,74.36 167.61,76.77 167.71,79.18 167.60,81.04 167.49,82.91 165.80,83.52 164.10,84.14 162.82,84.08 161.53,84.02 159.19,84.15 156.84,84.27 155.39,84.25 153.93,84.22 152.53,84.17 151.13,84.11 148.97,83.80 146.81,83.49 145.54,83.16 144.27,82.82 142.05,82.34 139.84,81.86 136.67,81.32 133.50,80.79 131.83,80.57 130.16,80.35 128.66,79.95 127.16,79.56 125.20,79.25 123.24,78.94 121.93,78.33 120.62,77.72 118.85,77.12 117.08,76.51 115.05,75.50 113.02,74.49 111.35,73.81 109.69,73.14 107.77,72.35 105.86,71.57 103.44,70.47 101.03,69.38 98.03,68.15 95.03,66.92 92.65,66.04 90.26,65.15 86.69,63.74 83.12,62.33 80.23,61.09 77.34,59.84 74.41,58.87 71.48,57.89 69.43,56.99 67.38,56.08 64.65,54.66 61.92,53.23 59.58,51.92 57.24,50.60 54.48,48.86 51.71,47.13 47.99,44.45 44.26,41.77 40.20,38.81 36.15,35.85 32.12,32.33 28.10,28.82 23.34,24.56 18.57,20.29 16.29,17.80 14.01,15.30 10.76,11.52 7.51,7.73 6.05,6.27 4.58,4.81 3.03,3.79 1.48,2.77 0.37,2.11 -0.72,1.45 -0.89,1.34 -1.05,1.24 -1.18,1.09 -1.32,0.95 -1.41,0.77 -1.51,0.60 -1.56,0.41 -1.61,0.22 -1.61,0.03 -1.62,-0.16 -1.57,-0.35 -1.53,-0.54 -1.44,-0.72 -1.35,-0.89 -1.23,-1.04 -1.10,-1.19 -0.94,-1.31 -0.78,-1.42 -0.60,-1.50 -0.42,-1.57 -0.22,-1.60 -0.03,-1.62 0.16,-1.60 0.35,-1.58 0.54,-1.52 0.72,-1.45 0.72,-1.45 L 0.72,-1.45 Z"></path></g></svg>